# This file uses meters as units for non-parametric coordinates.

g default
v 48.986958 -0.218516 150.000000
v 53.986958 -0.218516 150.000000
v 48.986958 9.781485 150.000000
v 53.986958 9.781485 150.000000
v 48.986958 9.781485 -150.000000
v 53.986958 9.781485 -150.000000
v 48.986958 -0.218516 -150.000000
v 53.986958 -0.218516 -150.000000
vt 0.375000 0.000000
vt 0.625000 0.000000
vt 0.375000 0.250000
vt 0.625000 0.250000
vt 0.375000 0.500000
vt 0.625000 0.500000
vt 0.375000 0.750000
vt 0.625000 0.750000
vt 0.375000 1.000000
vt 0.625000 1.000000
vt 0.875000 0.000000
vt 0.875000 0.250000
vt 0.125000 0.000000
vt 0.125000 0.250000
vn 0.000000 0.000000 1.000000
vn 0.000000 0.000000 1.000000
vn 0.000000 0.000000 1.000000
vn 0.000000 0.000000 1.000000
vn 0.000000 1.000000 0.000000
vn 0.000000 1.000000 0.000000
vn 0.000000 1.000000 0.000000
vn 0.000000 1.000000 0.000000
vn 0.000000 0.000000 -1.000000
vn 0.000000 0.000000 -1.000000
vn 0.000000 0.000000 -1.000000
vn 0.000000 0.000000 -1.000000
vn 0.000000 -1.000000 0.000000
vn 0.000000 -1.000000 0.000000
vn 0.000000 -1.000000 0.000000
vn 0.000000 -1.000000 0.000000
vn 1.000000 0.000000 0.000000
vn 1.000000 0.000000 0.000000
vn 1.000000 0.000000 0.000000
vn 1.000000 0.000000 0.000000
vn -1.000000 0.000000 0.000000
vn -1.000000 0.000000 0.000000
vn -1.000000 0.000000 0.000000
vn -1.000000 0.000000 0.000000
s off
g LWall
f 1/1/1 2/2/2 4/4/3 3/3/4
f 3/3/5 4/4/6 6/6/7 5/5/8
f 5/5/9 6/6/10 8/8/11 7/7/12
f 7/7/13 8/8/14 2/10/15 1/9/16
f 2/2/17 8/11/18 6/12/19 4/4/20
f 7/13/21 1/1/22 3/3/23 5/14/24
g default
v 53.116241 -0.218516 154.871414
v 53.116241 -0.218516 149.871414
v 53.116241 9.781485 154.871414
v 53.116241 9.781485 149.871414
v -51.031387 9.781485 154.871429
v -51.031387 9.781485 149.871429
v -51.031387 -0.218516 154.871429
v -51.031387 -0.218516 149.871429
vt 0.375000 0.000000
vt 0.625000 0.000000
vt 0.375000 0.250000
vt 0.625000 0.250000
vt 0.375000 0.500000
vt 0.625000 0.500000
vt 0.375000 0.750000
vt 0.625000 0.750000
vt 0.375000 1.000000
vt 0.625000 1.000000
vt 0.875000 0.000000
vt 0.875000 0.250000
vt 0.125000 0.000000
vt 0.125000 0.250000
vn 1.000000 0.000000 0.000000
vn 1.000000 0.000000 0.000000
vn 1.000000 0.000000 0.000000
vn 1.000000 0.000000 0.000000
vn 0.000000 1.000000 0.000000
vn 0.000000 1.000000 0.000000
vn 0.000000 1.000000 0.000000
vn 0.000000 1.000000 0.000000
vn -1.000000 0.000000 0.000000
vn -1.000000 0.000000 0.000000
vn -1.000000 0.000000 0.000000
vn -1.000000 0.000000 0.000000
vn 0.000000 -1.000000 0.000000
vn 0.000000 -1.000000 0.000000
vn 0.000000 -1.000000 0.000000
vn 0.000000 -1.000000 0.000000
vn -0.000000 0.000000 -1.000000
vn -0.000000 0.000000 -1.000000
vn -0.000000 0.000000 -1.000000
vn -0.000000 0.000000 -1.000000
vn 0.000000 0.000000 1.000000
vn 0.000000 0.000000 1.000000
vn 0.000000 0.000000 1.000000
vn 0.000000 0.000000 1.000000
s off
g FarWall
f 9/15/25 10/16/26 12/18/27 11/17/28
f 11/17/29 12/18/30 14/20/31 13/19/32
f 13/19/33 14/20/34 16/22/35 15/21/36
f 15/21/37 16/22/38 10/24/39 9/23/40
f 10/16/41 16/25/42 14/26/43 12/18/44
f 15/27/45 9/15/46 11/17/47 13/28/48
g default
v -53.002945 -0.218516 150.000000
v -48.002945 -0.218516 150.000000
v -53.002945 9.781485 150.000000
v -48.002945 9.781485 150.000000
v -53.002945 9.781485 -150.000000
v -48.002945 9.781485 -150.000000
v -53.002945 -0.218516 -150.000000
v -48.002945 -0.218516 -150.000000
vt 0.375000 0.000000
vt 0.625000 0.000000
vt 0.375000 0.250000
vt 0.625000 0.250000
vt 0.375000 0.500000
vt 0.625000 0.500000
vt 0.375000 0.750000
vt 0.625000 0.750000
vt 0.375000 1.000000
vt 0.625000 1.000000
vt 0.875000 0.000000
vt 0.875000 0.250000
vt 0.125000 0.000000
vt 0.125000 0.250000
vn 0.000000 0.000000 1.000000
vn 0.000000 0.000000 1.000000
vn 0.000000 0.000000 1.000000
vn 0.000000 0.000000 1.000000
vn 0.000000 1.000000 0.000000
vn 0.000000 1.000000 0.000000
vn 0.000000 1.000000 0.000000
vn 0.000000 1.000000 0.000000
vn 0.000000 0.000000 -1.000000
vn 0.000000 0.000000 -1.000000
vn 0.000000 0.000000 -1.000000
vn 0.000000 0.000000 -1.000000
vn 0.000000 -1.000000 0.000000
vn 0.000000 -1.000000 0.000000
vn 0.000000 -1.000000 0.000000
vn 0.000000 -1.000000 0.000000
vn 1.000000 0.000000 0.000000
vn 1.000000 0.000000 0.000000
vn 1.000000 0.000000 0.000000
vn 1.000000 0.000000 0.000000
vn -1.000000 0.000000 0.000000
vn -1.000000 0.000000 0.000000
vn -1.000000 0.000000 0.000000
vn -1.000000 0.000000 0.000000
s off
g RWall
f 17/29/49 18/30/50 20/32/51 19/31/52
f 19/31/53 20/32/54 22/34/55 21/33/56
f 21/33/57 22/34/58 24/36/59 23/35/60
f 23/35/61 24/36/62 18/38/63 17/37/64
f 18/30/65 24/39/66 22/40/67 20/32/68
f 23/41/69 17/29/70 19/31/71 21/42/72
g default
v 50.000000 -0.000000 150.000000
v 50.000000 0.000000 -150.000000
v 50.000000 1.336316 -150.000000
v 50.000000 1.336316 150.000000
v -4.347544 -9.203574 110.670204
v 1.822805 -9.203574 115.153221
v -2.660217 -9.203574 108.982872
v -0.534059 -9.203574 107.899536
v -5.430875 -9.203574 112.796356
v 1.822805 -9.203574 107.526253
v -5.804165 -9.203574 115.153221
v 4.179668 -9.203574 107.899536
v -5.430875 -9.203574 117.510086
v 6.305826 -9.203574 108.982872
v -4.347544 -9.203574 119.636238
v -2.660216 -9.203574 121.323570
v 7.993155 -9.203574 110.670197
v -0.534059 -9.203574 122.406898
v 9.076487 -9.203574 112.796356
v 1.822804 -9.203574 122.780190
v 9.449773 -9.203574 115.153221
v 4.179667 -9.203574 122.406898
v 9.076482 -9.203574 117.510086
v 7.993151 -9.203574 119.636238
v 6.305824 -9.203574 121.323570
v -2.660217 -0.000000 108.982872
v -4.347544 -0.000000 110.670204
v -0.534059 -0.000000 107.899536
v -5.430875 -0.000000 112.796356
v 1.822805 -0.000000 107.526253
v -5.804165 -0.000000 115.153221
v 4.179668 -0.000000 107.899536
v -5.430875 -0.000000 117.510086
v 6.305826 -0.000000 108.982872
v -4.347544 -0.000000 119.636238
v -2.660216 -0.000000 121.323570
v 7.993155 -0.000000 110.670197
v -0.534059 -0.000000 122.406898
v 9.076487 -0.000000 112.796356
v 1.822804 -0.000000 122.780190
v 9.449773 -0.000000 115.153221
v 4.179667 -0.000000 122.406898
v 9.076482 -0.000000 117.510086
v 7.993151 -0.000000 119.636238
v 6.305824 -0.000000 121.323570
v -50.000000 -0.000000 150.000000
v -50.000000 1.336316 150.000000
v -50.000000 0.000000 -150.000000
v -5.804165 1.336316 115.153221
v -5.430875 1.336316 112.796356
v -4.347544 1.336316 110.670204
v -2.660217 1.336316 108.982872
v -0.534059 1.336316 107.899536
v 1.822805 1.336316 107.526253
v 4.179668 1.336316 107.899536
v 6.305826 1.336316 108.982872
v 7.993155 1.336316 110.670197
v 9.076487 1.336316 112.796356
v 9.449773 1.336316 115.153221
v -50.000000 1.336316 -150.000000
v 9.076482 1.336316 117.510086
v 7.993151 1.336316 119.636238
v 6.305824 1.336316 121.323570
v 4.179667 1.336316 122.406898
v 1.822804 1.336316 122.780190
v -0.534059 1.336316 122.406898
v -2.660216 1.336316 121.323570
v -4.347544 1.336316 119.636238
v -5.430875 1.336316 117.510086
vt 0.333333 0.000000
vt 0.333333 1.000000
vt 0.333333 1.000000
vt 0.333333 0.000000
vt 0.373591 0.064409
vt 0.500000 0.150000
vt 0.408159 0.029841
vt 0.451716 0.007647
vt 0.351397 0.107966
vt 0.500000 -0.000000
vt 0.343750 0.156250
vt 0.548284 0.007647
vt 0.351397 0.204534
vt 0.591842 0.029841
vt 0.373591 0.248091
vt 0.408159 0.282659
vt 0.626409 0.064408
vt 0.451716 0.304853
vt 0.648603 0.107966
vt 0.500000 0.312500
vt 0.656250 0.156250
vt 0.548284 0.304853
vt 0.648603 0.204534
vt 0.626409 0.248091
vt 0.591841 0.282659
vt 0.450000 0.312500
vt 0.450000 0.584628
vt 0.462500 0.584628
vt 0.462500 0.312500
vt 0.437500 0.312500
vt 0.437500 0.584628
vt 0.475000 0.584628
vt 0.475000 0.312500
vt 0.425000 0.312500
vt 0.425000 0.584628
vt 0.487500 0.584628
vt 0.487500 0.312500
vt 0.412500 0.312500
vt 0.412500 0.584628
vt 0.500000 0.584628
vt 0.500000 0.312500
vt 0.400000 0.312500
vt 0.400000 0.584628
vt 0.512500 0.584628
vt 0.512500 0.312500
vt 0.525000 0.584628
vt 0.525000 0.312500
vt 0.387500 0.312500
vt 0.387500 0.584628
vt 0.537500 0.584628
vt 0.537500 0.312500
vt 0.375000 0.312500
vt 0.375000 0.584628
vt 0.550000 0.584628
vt 0.550000 0.312500
vt 0.612500 0.312500
vt 0.612500 0.584628
vt 0.625000 0.584628
vt 0.625000 0.312500
vt 0.562500 0.584628
vt 0.562500 0.312500
vt 0.600000 0.312500
vt 0.600000 0.584628
vt 0.587500 0.312500
vt 0.587500 0.584628
vt 0.575000 0.584628
vt 0.575000 0.312500
vt 0.000000 0.000000
vt 0.000000 0.000000
vt 0.147319 0.116156
vt 0.148564 0.124012
vt 0.152175 0.131099
vt 0.157799 0.136724
vt 0.164886 0.140335
vt 0.172743 0.141579
vt 0.180599 0.140335
vt 0.187686 0.136724
vt 0.193311 0.131099
vt 0.196922 0.124012
vt 0.198166 0.116156
vt 0.000000 1.000000
vt 0.147319 0.116156
vt 0.148564 0.124012
vt 0.152175 0.131099
vt 0.157799 0.136724
vt 0.164886 0.140335
vt 0.172743 0.141579
vt 0.180599 0.140335
vt 0.187686 0.136724
vt 0.193311 0.131099
vt 0.196922 0.124012
vt 0.198166 0.116156
vt 0.000000 1.000000
vt 0.196922 0.108300
vt 0.193311 0.101213
vt 0.187686 0.095588
vt 0.180599 0.091977
vt 0.172743 0.090733
vt 0.164886 0.091977
vt 0.157799 0.095588
vt 0.152175 0.101213
vt 0.148564 0.108300
vt 0.196922 0.108300
vt 0.193311 0.101213
vt 0.187686 0.095588
vt 0.180599 0.091977
vt 0.172743 0.090733
vt 0.164886 0.091977
vt 0.157799 0.095588
vt 0.152175 0.101213
vt 0.148564 0.108300
vn 1.000000 0.000000 0.000000
vn 1.000000 0.000000 0.000000
vn 1.000000 0.000000 0.000000
vn 1.000000 0.000000 0.000000
vn 0.000000 1.000000 -0.000000
vn 0.000000 1.000000 -0.000000
vn 0.000000 1.000000 -0.000000
vn 0.000000 1.000000 -0.000000
vn 0.000000 1.000000 -0.000000
vn 0.000000 1.000000 0.000000
vn 0.000000 1.000000 0.000000
vn 0.000000 1.000000 0.000000
vn 0.000000 1.000000 0.000000
vn 0.000000 1.000000 0.000000
vn 0.000000 1.000000 0.000000
vn 0.000000 1.000000 0.000000
vn 0.000000 1.000000 0.000000
vn 0.000000 1.000000 0.000000
vn 0.000000 1.000000 -0.000000
vn 0.000000 1.000000 -0.000000
vn 0.000000 1.000000 -0.000000
vn 0.000000 1.000000 -0.000000
vn 0.000000 1.000000 0.000000
vn 0.000000 1.000000 -0.000000
vn 0.000000 1.000000 -0.000000
vn 0.587787 0.000000 0.809016
vn 0.587786 0.000000 0.809017
vn 0.809016 0.000000 0.587787
vn 0.809018 0.000000 0.587784
vn 0.309015 0.000000 0.951057
vn 0.309017 0.000000 0.951056
vn 0.951056 0.000000 0.309018
vn 0.951057 0.000000 0.309017
vn -0.000005 0.000000 1.000000
vn 0.000005 0.000000 1.000000
vn 1.000000 0.000000 -0.000000
vn 1.000000 0.000000 0.000000
vn -0.309017 0.000000 0.951056
vn -0.309015 0.000000 0.951057
vn 0.951056 0.000000 -0.309017
vn 0.951056 0.000000 -0.309017
vn -0.587783 0.000000 0.809019
vn -0.587787 0.000000 0.809016
vn 0.809017 0.000000 -0.587786
vn 0.809017 0.000000 -0.587786
vn 0.587786 0.000000 -0.809017
vn 0.587786 0.000000 -0.809017
vn -0.809016 0.000000 0.587786
vn -0.809017 0.000000 0.587785
vn 0.309020 0.000000 -0.951056
vn 0.309015 0.000000 -0.951057
vn -0.951057 0.000000 0.309016
vn -0.951057 0.000000 0.309016
vn 0.000005 0.000000 -1.000000
vn -0.000005 0.000000 -1.000000
vn -1.000000 0.000000 -0.000001
vn -1.000000 0.000000 -0.000001
vn -0.309015 0.000000 -0.951057
vn -0.309020 0.000000 -0.951056
vn -0.951056 0.000000 -0.309017
vn -0.951056 0.000000 -0.309017
vn -0.809017 0.000000 -0.587786
vn -0.809017 0.000000 -0.587785
vn -0.587786 0.000000 -0.809017
vn -0.587786 0.000000 -0.809017
vn 0.000000 0.000000 1.000000
vn 0.000000 0.000000 1.000000
vn 0.000000 0.000000 1.000000
vn 0.000000 0.000000 1.000000
vn -0.000000 1.000000 0.000000
vn -0.000000 1.000000 0.000000
vn -0.000000 1.000000 0.000000
vn 0.000000 1.000000 0.000000
vn -0.000000 1.000000 0.000000
vn 0.000000 1.000000 0.000000
vn 0.000000 1.000000 0.000000
vn 0.000000 1.000000 0.000000
vn -0.000000 1.000000 0.000000
vn -0.000000 1.000000 0.000000
vn 0.000000 1.000000 0.000000
vn -0.000000 1.000000 0.000000
vn 0.000000 1.000000 0.000000
vn -0.000000 1.000000 0.000000
vn -0.000000 1.000000 0.000000
vn 0.000000 1.000000 0.000000
vn 0.000000 1.000000 -0.000000
vn 0.000000 1.000000 0.000000
vn 0.000000 1.000000 -0.000000
vn 0.000000 1.000000 -0.000000
vn 0.000000 1.000000 0.000000
vn 0.000000 1.000000 0.000000
vn 0.000000 1.000000 0.000000
vn 0.000000 1.000000 -0.000000
vn 0.000000 1.000000 -0.000000
vn 0.000000 1.000000 0.000000
vn 0.000000 1.000000 0.000000
vn 0.000000 1.000000 0.000000
vn 0.000000 1.000000 -0.000000
vn 0.000000 1.000000 -0.000000
vn 0.000000 1.000000 0.000000
vn -0.000000 1.000000 0.000000
vn -0.000000 1.000000 0.000000
vn 0.000000 1.000000 0.000000
vn -0.000000 1.000000 0.000000
vn -0.000000 1.000000 0.000000
vn -0.000000 1.000000 0.000000
vn 0.000000 1.000000 -0.000000
vn -0.000000 1.000000 0.000000
vn 0.000000 1.000000 0.000000
vn 0.000000 1.000000 -0.000000
vn 0.000000 1.000000 0.000000
vn 0.000000 1.000000 0.000000
vn 0.000000 1.000000 0.000000
vn 0.000000 1.000000 0.000000
vn 0.000000 1.000000 0.000000
vn 0.000000 1.000000 -0.000001
vn 0.000000 1.000000 0.000000
vn -1.000000 0.000000 0.000000
vn -1.000000 0.000000 0.000000
vn -1.000000 0.000000 0.000000
vn -1.000000 0.000000 0.000000
vn 0.000000 0.000000 -1.000000
vn 0.000000 0.000000 -1.000000
vn 0.000000 0.000000 -1.000000
vn 0.000000 0.000000 -1.000000
s 1
g Green
f 25/43/73 26/44/74 28/46/75
f 28/46/75 26/44/74 27/45/76
s 2
f 29/47/77 30/48/78 31/49/79
f 31/49/79 30/48/78 32/50/80
f 33/51/81 30/48/78 29/47/77
f 32/50/80 30/48/78 34/52/82
f 35/53/83 30/48/78 33/51/81
f 34/52/82 30/48/78 36/54/84
f 37/55/85 30/48/78 35/53/83
f 36/54/84 30/48/78 38/56/86
f 39/57/87 30/48/78 37/55/85
f 40/58/88 30/48/78 39/57/87
f 38/56/86 30/48/78 41/59/89
f 42/60/90 30/48/78 40/58/88
f 41/59/89 30/48/78 43/61/91
f 44/62/92 30/48/78 42/60/90
f 43/61/91 30/48/78 45/63/93
f 46/64/94 30/48/78 44/62/92
f 45/63/93 30/48/78 47/65/95
f 47/65/95 30/48/78 48/66/96
f 49/67/97 30/48/78 46/64/94
f 48/66/96 30/48/78 49/67/97
s 3
f 31/68/98 50/69/99 29/71/100
f 29/71/100 50/69/99 51/70/101
f 32/72/102 52/73/103 31/68/98
f 31/68/98 52/73/103 50/69/99
f 29/71/100 51/70/101 33/75/104
f 33/75/104 51/70/101 53/74/105
f 34/76/106 54/77/107 32/72/102
f 32/72/102 54/77/107 52/73/103
f 33/75/104 53/74/105 35/79/108
f 35/79/108 53/74/105 55/78/109
f 36/80/110 56/81/111 34/76/106
f 34/76/106 56/81/111 54/77/107
f 35/79/108 55/78/109 37/83/112
f 37/83/112 55/78/109 57/82/113
f 38/84/114 58/85/115 36/80/110
f 36/80/110 58/85/115 56/81/111
f 37/83/112 57/82/113 39/87/116
f 39/87/116 57/82/113 59/86/117
f 39/87/116 59/86/117 40/89/118
f 40/89/118 59/86/117 60/88/119
f 41/90/120 61/91/121 38/84/114
f 38/84/114 61/91/121 58/85/115
f 40/89/118 60/88/119 42/93/122
f 42/93/122 60/88/119 62/92/123
f 43/94/124 63/95/125 41/90/120
f 41/90/120 63/95/125 61/91/121
f 42/93/122 62/92/123 44/97/126
f 44/97/126 62/92/123 64/96/127
f 45/98/128 65/99/129 43/101/124
f 43/101/124 65/99/129 63/100/125
f 44/97/126 64/96/127 46/103/130
f 46/103/130 64/96/127 66/102/131
f 47/104/132 67/105/133 45/98/128
f 45/98/128 67/105/133 65/99/129
f 48/106/134 68/107/135 47/104/132
f 47/104/132 68/107/135 67/105/133
f 46/103/130 66/102/131 49/109/136
f 49/109/136 66/102/131 69/108/137
f 49/109/136 69/108/137 48/106/134
f 48/106/134 69/108/137 68/107/135
s 13
f 70/110/138 25/43/139 71/111/140
f 71/111/140 25/43/139 28/46/141
s 14
f 25/43/142 26/44/143 65/122/144
f 65/122/144 26/44/143 63/121/145
f 63/121/145 26/44/143 61/120/146
f 70/110/147 55/112/148 72/123/149
f 55/112/148 53/113/150 72/123/149
f 53/113/150 51/114/151 72/123/149
f 51/114/151 50/115/152 72/123/149
f 61/120/146 26/44/143 58/119/153
f 50/115/152 52/116/154 72/123/149
f 58/119/153 26/44/143 56/118/155
f 56/118/155 26/44/143 54/117/156
f 52/116/154 54/117/156 72/123/149
f 54/117/156 26/44/143 72/123/149
s 16
f 28/46/157 27/45/158 83/134/159
f 83/134/159 27/45/158 82/133/160
f 82/133/160 27/45/158 81/132/161
f 71/111/162 73/124/163 84/135/164
f 73/124/163 74/125/165 84/135/164
f 74/125/165 75/126/166 84/135/164
f 75/126/166 76/127/167 84/135/164
f 81/132/161 27/45/158 80/131/168
f 76/127/167 77/128/169 84/135/164
f 80/131/168 27/45/158 79/130/170
f 79/130/170 27/45/158 78/129/171
f 77/128/169 78/129/171 84/135/164
f 78/129/171 27/45/158 84/135/164
s 14
f 65/122/144 67/136/172 25/43/142
f 55/112/148 70/110/147 57/144/173
f 67/136/172 68/137/174 25/43/142
f 57/144/173 70/110/147 59/143/175
f 68/137/174 69/138/176 25/43/142
f 59/143/175 70/110/147 60/142/177
f 69/138/176 66/139/178 25/43/142
f 70/110/147 25/43/142 60/142/177
f 60/142/177 25/43/142 62/141/179
f 62/141/179 25/43/142 64/140/180
f 66/139/178 64/140/180 25/43/142
s 16
f 83/134/159 85/145/181 28/46/157
f 73/124/163 71/111/162 93/153/182
f 85/145/181 86/146/183 28/46/157
f 93/153/182 71/111/162 92/152/184
f 86/146/183 87/147/185 28/46/157
f 92/152/184 71/111/162 91/151/186
f 87/147/185 88/148/187 28/46/157
f 71/111/162 28/46/157 91/151/186
f 91/151/186 28/46/157 90/150/188
f 90/150/188 28/46/157 89/149/189
f 88/148/187 89/149/189 28/46/157
s 18
f 72/123/190 70/110/191 84/135/192
f 84/135/192 70/110/191 71/111/193
s 19
f 26/44/194 72/123/195 27/45/196
f 27/45/196 72/123/195 84/135/197
