# This file uses meters as units for non-parametric coordinates.

g default
v -50.000000 -0.000000 -340.669495
v 50.000000 -0.000000 -340.669495
v -50.000000 -0.000000 -345.448029
v 50.000000 -0.000000 -345.448029
v -50.000000 39.884434 -348.012329
v 50.000000 39.884434 -348.012329
v -50.000000 16.762861 -385.422211
v 50.000000 16.762861 -385.422211
v -50.000000 11.969892 -398.643036
v 50.000000 11.969892 -398.643036
v -50.000000 6.989760 -421.529236
v 50.000000 6.989760 -421.529236
v -49.999992 3.231279 -449.022400
v 50.000008 3.231279 -449.022400
v -50.000000 -0.000000 -479.517548
v 50.000000 -0.000000 -479.517548
v -50.000000 0.000000 -640.669495
v 50.000000 0.000000 -640.669495
v -50.000000 27.577501 -364.124207
v 50.000000 27.577501 -364.124207
v -50.000000 33.345356 -356.068237
v 50.000000 33.345356 -356.068237
v -50.000000 21.331734 -375.273987
v 50.000000 21.331734 -375.273987
vt 0.000000 0.000000
vt 0.333333 0.000000
vt 0.000000 0.125000
vt 0.333333 0.125000
vt 0.000000 0.250000
vt 0.333333 0.250000
vt 0.000000 0.375000
vt 0.333333 0.375000
vt 0.000000 0.500000
vt 0.333333 0.500000
vt 0.000000 0.625000
vt 0.333333 0.625000
vt 0.000000 0.750000
vt 0.333333 0.750000
vt 0.000000 0.875000
vt 0.333333 0.875000
vt 0.000000 1.000000
vt 0.333333 1.000000
vt 0.000000 0.312500
vt 0.333333 0.312500
vt 0.000000 0.281250
vt 0.333333 0.281250
vt 0.000000 0.343750
vt 0.333333 0.343750
vn 0.000000 1.000000 0.000000
vn 0.000000 1.000000 0.000000
vn 0.000000 0.181060 0.983472
vn 0.000000 0.181060 0.983472
vn 0.000000 0.064161 0.997940
vn 0.000000 0.064161 0.997940
vn 0.000000 0.891636 -0.452753
vn 0.000000 0.891636 -0.452753
vn 0.000000 0.928282 -0.371878
vn 0.000000 0.928282 -0.371878
vn 0.000000 0.965266 -0.261269
vn 0.000000 0.965266 -0.261269
vn 0.000000 0.985288 -0.170904
vn 0.000000 0.985288 -0.170904
vn 0.000000 0.992814 -0.119671
vn 0.000000 0.992814 -0.119671
vn 0.000000 0.999858 -0.016858
vn 0.000000 0.999858 -0.016858
vn 0.000000 1.000000 0.000000
vn 0.000000 1.000000 0.000000
vn 0.000000 0.794689 -0.607017
vn 0.000000 0.794689 -0.607017
vn 0.000000 0.847799 -0.530317
vn 0.000000 0.847799 -0.530317
vn 0.000000 0.776413 -0.630224
vn 0.000000 0.776413 -0.630224
s 1
g pPlane1
f 1/1/1 2/2/2 4/4/3 3/3/4
f 3/3/4 4/4/3 6/6/5 5/5/6
s 2
f 23/23/7 24/24/8 8/8/9 7/7/10
f 7/7/10 8/8/9 10/10/11 9/9/12
f 9/9/12 10/10/11 12/12/13 11/11/14
f 11/11/14 12/12/13 14/14/15 13/13/16
f 13/13/16 14/14/15 16/16/17 15/15/18
f 15/15/18 16/16/17 18/18/19 17/17/20
f 21/21/21 22/22/22 20/20/23 19/19/24
f 5/5/25 6/6/26 22/22/22 21/21/21
f 19/19/24 20/20/23 24/24/8 23/23/7
